<?xml version="1.0" encoding="iso-8859-1"?>
<!-- Uploaded to: SVG Repo, www.svgrepo.com, Generator: SVG Repo Mixer Tools -->
<svg height="800px" width="800px" version="1.1" id="Layer_1" xmlns="http://www.w3.org/2000/svg" xmlns:xlink="http://www.w3.org/1999/xlink" 
	 viewBox="0 0 512 512" xml:space="preserve">
<circle style="fill:#FBA218;" cx="256.003" cy="256.003" r="248.173"/>
<path style="fill:#F15A24;" d="M135.917,256c0-114.909,78.114-211.539,184.126-239.783c-20.436-5.444-41.892-8.387-64.044-8.387
	C118.939,7.829,7.829,118.939,7.829,256s111.109,248.17,248.17,248.17c22.151,0,43.608-2.943,64.044-8.387
	C214.031,467.538,135.917,370.909,135.917,256z"/>
<path style="fill:#84DCCF;" d="M295.67,352.042v64.068c0,26.528-21.492,48.033-48.021,48.033s-48.021-21.505-48.021-48.033v-64.068"
	/>
<path style="fill:#027EA8;" d="M223.638,416.11v-64.068h-24.01v64.068c0,26.528,21.672,48.033,48.2,48.033
	c4.154,0,8.077-0.583,11.922-1.574C239.044,457.228,223.638,438.483,223.638,416.11z"/>
<circle style="fill:#FFFFFF;" cx="336.051" cy="175.944" r="32.021"/>
<path d="M255.999,512c-68.38,0-132.667-26.629-181.019-74.981C26.629,388.667,0,324.38,0,256S26.629,123.333,74.98,74.981
	C123.334,26.629,187.62,0,255.999,0s132.667,26.629,181.02,74.981C485.371,123.333,512,187.62,512,256.001
	s-26.629,132.668-74.98,181.019C388.666,485.371,324.38,512,255.999,512z M255.999,15.659c-64.197,0-124.551,25-169.946,70.394
	S15.659,191.803,15.659,256s25,124.552,70.395,169.946s105.749,70.394,169.946,70.394s124.552-25,169.946-70.394
	S496.342,320.196,496.342,256s-25-124.552-70.395-169.946S320.198,15.659,255.999,15.659z"/>
<polygon points="207.979,199.627 192.32,199.627 192.32,183.968 111.938,183.968 111.938,168.309 207.979,168.309 "/>
<path d="M336.055,215.797c-21.975,0-39.852-17.877-39.852-39.851c0-21.975,17.877-39.852,39.852-39.852
	c21.974,0,39.851,17.877,39.851,39.852C375.906,197.919,358.029,215.797,336.055,215.797z M336.055,151.753
	c-13.339,0-24.193,10.853-24.193,24.193c0,13.339,10.854,24.192,24.193,24.192s24.192-10.853,24.192-24.192
	C360.247,162.605,349.395,151.753,336.055,151.753z"/>
<path d="M360.247,312.039c0,17.754-14.444,32.198-32.198,32.198H167.94c-17.754,0-32.199-14.444-32.199-32.198h-15.659
	c0,26.388,21.468,47.857,47.858,47.857h24.38v56.215c0,30.802,25.054,55.863,55.85,55.863s55.85-25.06,55.85-55.863v-56.215h24.029
	c26.387,0,47.857-21.468,47.857-47.857L360.247,312.039L360.247,312.039z M288.362,416.11c0,22.168-18.031,40.204-40.191,40.204
	s-40.191-18.035-40.191-40.204v-56.215h32.362v40.167h15.659v-40.167h32.362V416.11z"/>
<path d="M264.005,295.851h-24.017c-21.975,0-39.852-17.877-39.852-39.851h15.659c0,13.339,10.853,24.192,24.193,24.192h24.017
	c13.339,0,24.192-10.853,24.192-24.192h15.659C303.856,277.974,285.979,295.851,264.005,295.851z"/>
</svg>