<?xml version="1.0" ?>
<!-- Uploaded to: SVG Repo, www.svgrepo.com, Generator: SVG Repo Mixer Tools -->
<svg width="800px" height="800px" viewBox="0 0 64 64" enable-background="new 0 0 64 64" id="Filled_Outline_00000067219907487444458210000009573402626722376610_" version="1.1" xml:space="preserve" xmlns="http://www.w3.org/2000/svg" xmlns:xlink="http://www.w3.org/1999/xlink">
<g>
<g>
<path d="M41,17h-0.1c-2.705-1.27-5.714-2-8.9-2s-6.195,0.73-8.9,2H23C10.85,17,1,26.85,1,39v0    c0,12.15,9.85,22,22,22h0.1c2.705,1.27,5.714,2,8.9,2s6.195-0.73,8.9-2H41c12.15,0,22-9.85,22-22v0C63,26.85,53.15,17,41,17z" fill="#FF6D1F"/>
<path d="M21,4L21,4c0,1.657,1.343,3,3,3h0c2.761,0,5,2.239,5,5v3h6v-3c0-6.075-4.925-11-11-11h0    C22.343,1,21,2.343,21,4z" fill="#A69D24"/>
<path d="M29,35c0,0-2-2-6-2c-4,0-6,2-6,2s1-6,6-6C28,29,29,35,29,35z M41,29c-5,0-6,6-6,6s2-2,6-2c4,0,6,2,6,2    S46,29,41,29z M17,44c0,8.284,6.716,15,15,15h0c8.284,0,15-6.716,15-15v-1h-6v4h-6l0-4h-6v4h-6v-4h-6V44z" fill="#732002"/>
</g>
<g>
<path d="M16.538,35.883c0.382,0.2,0.854,0.13,1.164-0.17C17.774,35.643,19.509,34,23,34s5.226,1.643,5.293,1.707    C28.485,35.899,28.741,36,29,36c0.155,0,0.312-0.036,0.457-0.111c0.387-0.199,0.6-0.625,0.529-1.054    C29.592,32.471,27.625,28,23,28s-6.592,4.471-6.986,6.835C15.942,35.262,16.156,35.682,16.538,35.883z M23,30    c2.177,0,3.449,1.411,4.166,2.759C26.106,32.34,24.717,32,23,32s-3.106,0.34-4.166,0.759C19.552,31.411,20.823,30,23,30z" fill="#260A04"/>
<path d="M34.538,35.883c0.382,0.199,0.854,0.129,1.163-0.17C35.773,35.643,37.509,34,41,34    s5.227,1.643,5.293,1.707C46.485,35.899,46.741,36,47,36c0.156,0,0.312-0.036,0.458-0.111c0.386-0.199,0.6-0.625,0.528-1.054    C47.593,32.471,45.625,28,41,28s-6.593,4.471-6.986,6.835C33.942,35.262,34.156,35.682,34.538,35.883z M41,30    c2.178,0,3.448,1.411,4.166,2.759C44.106,32.34,42.717,32,41,32s-3.106,0.34-4.166,0.759C37.552,31.411,38.823,30,41,30z" fill="#260A04"/>
<path d="M47,42h-6c-0.553,0-1,0.448-1,1v3h-4v-3c0-0.552-0.447-1-1-1h-6c-0.552,0-1,0.448-1,1v3h-4v-3    c0-0.552-0.448-1-1-1h-6c-0.552,0-1,0.448-1,1v1c0,8.822,7.178,16,16,16s16-7.178,16-16v-1C48,42.448,47.553,42,47,42z M32,58    c-7.72,0-14-6.28-14-14h4v3c0,0.552,0.448,1,1,1h6c0.552,0,1-0.448,1-1v-3h4v3c0,0.552,0.447,1,1,1h6c0.553,0,1-0.448,1-1v-3h4    C46,51.72,39.72,58,32,58z" fill="#260A04"/>
<path d="M64,39c0-12.63-10.233-22.911-22.843-22.996c-1.623-0.746-3.351-1.3-5.157-1.633V12    c0-6.617-5.383-12-12-12c-2.206,0-4,1.794-4,4s1.794,4,4,4s4,1.794,4,4v2.371c-1.805,0.333-3.534,0.887-5.157,1.633    C10.233,16.089,0,26.37,0,39s10.233,22.911,22.843,22.996C25.633,63.279,28.733,64,32,64s6.367-0.721,9.157-2.004    C53.767,61.911,64,51.63,64,39z M24,6c-1.103,0-2-0.897-2-2s0.897-2,2-2c5.514,0,10,4.486,10,10v2.095    C33.341,14.035,32.675,14,32,14s-1.341,0.035-2,0.095V12C30,8.691,27.309,6,24,6z M45.218,59.574C50.547,55.555,54,49.174,54,42    h-2c0,11.028-8.972,20-20,20c-11.028,0-20-8.972-20-20h-2c0,7.174,3.453,13.555,8.782,17.574C9.217,57.616,2,49.135,2,39    s7.217-18.616,16.782-20.574C13.453,22.445,10,28.826,10,36h2c0-11.028,8.972-20,20-20c11.028,0,20,8.972,20,20h2    c0-7.174-3.453-13.555-8.782-17.574C54.782,20.384,62,28.865,62,39S54.782,57.616,45.218,59.574z" fill="#260A04"/>
</g>
</g>
</svg>