<svg width="148" height="148" viewBox="0 0 148 148" fill="none" xmlns="http://www.w3.org/2000/svg">
<g id="Group 27">
<circle id="Ellipse 18" cx="74" cy="74" r="72.5" fill="#0E0132" stroke="white" stroke-width="3"/>
<path id="Vector" d="M86.9438 65.0556C91.484 65.0556 95.1688 68.7578 95.1688 73.3194V95.7453C95.1688 101.382 92.94 106.789 88.9727 110.775C85.0055 114.761 79.6247 117 74.0141 117C68.4035 117 63.0227 114.761 59.0555 110.775C55.0882 106.789 52.8594 101.382 52.8594 95.7453V73.3194C52.8594 68.7578 56.5395 65.0556 61.0844 65.0556H86.9438ZM51.1157 65.0556C49.4229 67.1024 48.4046 69.6271 48.2017 72.2806L48.1547 73.3194V95.7453C48.1547 99.745 49.0571 103.532 50.6645 106.913C47.8787 107.662 44.9589 107.757 42.1307 107.191C39.3025 106.625 36.6418 105.413 34.3543 103.649C32.0668 101.884 30.2138 99.6153 28.9386 97.0166C27.6633 94.4179 27.0001 91.5593 27 88.6619V73.3194C27.0001 71.2455 27.7763 69.2474 29.1746 67.7218C30.5729 66.1961 32.491 65.2545 34.5482 65.0839L35.225 65.0556H51.1157ZM96.9125 65.0556H112.775C117.315 65.0556 121 68.7578 121 73.3194V88.6667C121.001 91.5622 120.339 94.4191 119.065 97.0166C117.792 99.6141 115.942 101.883 113.657 103.647C111.372 105.412 108.713 106.625 105.888 107.193C103.062 107.761 100.144 107.668 97.359 106.923C98.769 103.957 99.6338 100.689 99.8265 97.2328L99.8688 95.7453V73.3194C99.8688 70.1792 98.7643 67.2986 96.9125 65.0556ZM74 32C77.7396 32 81.3259 33.4926 83.9702 36.1493C86.6145 38.8061 88.1 42.4094 88.1 46.1667C88.1 49.9239 86.6145 53.5273 83.9702 56.184C81.3259 58.8408 77.7396 60.3333 74 60.3333C70.2604 60.3333 66.6741 58.8408 64.0298 56.184C61.3855 53.5273 59.9 49.9239 59.9 46.1667C59.9 42.4094 61.3855 38.8061 64.0298 36.1493C66.6741 33.4926 70.2604 32 74 32ZM104.55 36.7222C107.666 36.7222 110.655 37.966 112.859 40.18C115.062 42.394 116.3 45.3967 116.3 48.5278C116.3 51.6588 115.062 54.6616 112.859 56.8756C110.655 59.0895 107.666 60.3333 104.55 60.3333C101.434 60.3333 98.4451 59.0895 96.2415 56.8756C94.0379 54.6616 92.8 51.6588 92.8 48.5278C92.8 45.3967 94.0379 42.394 96.2415 40.18C98.4451 37.966 101.434 36.7222 104.55 36.7222ZM43.45 36.7222C46.5663 36.7222 49.555 37.966 51.7585 40.18C53.9621 42.394 55.2 45.3967 55.2 48.5278C55.2 51.6588 53.9621 54.6616 51.7585 56.8756C49.555 59.0895 46.5663 60.3333 43.45 60.3333C40.3337 60.3333 37.345 59.0895 35.1415 56.8756C32.9379 54.6616 31.7 51.6588 31.7 48.5278C31.7 45.3967 32.9379 42.394 35.1415 40.18C37.345 37.966 40.3337 36.7222 43.45 36.7222Z" fill="white"/>
<circle id="Ellipse 17" cx="74" cy="74" r="72.5" fill="#0E0132" stroke="white" stroke-width="3"/>
<path id="Vector_2" fill-rule="evenodd" clip-rule="evenodd" d="M55.3333 50.6667C55.3333 45.716 57.3 40.968 60.8007 37.4673C64.3013 33.9667 69.0493 32 74 32C78.9507 32 83.6986 33.9667 87.1993 37.4673C90.7 40.968 92.6667 45.716 92.6667 50.6667C92.6667 55.6174 90.7 60.3653 87.1993 63.866C83.6986 67.3667 78.9507 69.3333 74 69.3333C69.0493 69.3333 64.3013 67.3667 60.8007 63.866C57.3 60.3653 55.3333 55.6174 55.3333 50.6667ZM55.3333 78.6667C49.1449 78.6667 43.21 81.125 38.8342 85.5008C34.4583 89.8767 32 95.8116 32 102C32 105.713 33.475 109.274 36.1005 111.899C38.726 114.525 42.287 116 46 116H102C105.713 116 109.274 114.525 111.899 111.899C114.525 109.274 116 105.713 116 102C116 95.8116 113.542 89.8767 109.166 85.5008C104.79 81.125 98.855 78.6667 92.6667 78.6667H55.3333Z" fill="white"/>
</g>
</svg>
